<svg
            width="32"
            height="32"
            viewBox="0 0 32 32"
            fill="none"
            xmlns="http://www.w3.org/2000/svg"
        >
            <path
                d="M26.1773 10.6627C26.1947 10.896 26.1947 11.128 26.1947 11.36C26.1947 18.46 20.7907 26.6413 10.9147 26.6413C7.87199 26.6413 5.04532 25.76 2.66666 24.2293C3.09866 24.2787 3.51466 24.296 3.96399 24.296C6.38131 24.3018 8.73018 23.4935 10.632 22.0013C9.51122 21.9811 8.42476 21.6113 7.52431 20.9437C6.62386 20.276 5.95437 19.3439 5.60932 18.2773C5.94132 18.3267 6.27466 18.36 6.62399 18.36C7.10532 18.36 7.58932 18.2933 8.03866 18.1773C6.82234 17.9318 5.72862 17.2725 4.94348 16.3116C4.15834 15.3507 3.73025 14.1475 3.73199 12.9067V12.84C4.44799 13.2387 5.27866 13.488 6.15866 13.5213C5.42144 13.0315 4.81695 12.3667 4.39911 11.5864C3.98127 10.8061 3.76307 9.93448 3.76399 9.04934C3.76399 8.05201 4.02932 7.13734 4.49466 6.34001C5.84417 8.00003 7.52733 9.35809 9.4351 10.3262C11.3429 11.2943 13.4327 11.851 15.5693 11.96C15.4867 11.56 15.436 11.1453 15.436 10.7293C15.4356 10.024 15.5743 9.32542 15.8441 8.67366C16.1139 8.0219 16.5095 7.42971 17.0082 6.93092C17.507 6.43214 18.0992 6.03655 18.751 5.76678C19.4027 5.497 20.1013 5.35832 20.8067 5.35867C22.3533 5.35867 23.7493 6.00667 24.7307 7.05467C25.933 6.82216 27.086 6.38324 28.1387 5.75734C27.7379 6.99843 26.8983 8.05081 25.7773 8.71734C26.8437 8.59571 27.8859 8.31528 28.8693 7.88534C28.1348 8.95614 27.2247 9.89513 26.1773 10.6627V10.6627Z"
                fill="#666666"
            />
        </svg>