<svg
            width="32"
            height="32"
            viewBox="0 0 32 32"
            fill="none"
            xmlns="http://www.w3.org/2000/svg" >
            <path
                d="M23.296 19.176C22.9 18.9773 20.952 18.02 20.5893 17.8867C20.2253 17.7547 19.9613 17.6893 19.696 18.0867C19.4333 18.4827 18.6733 19.3747 18.4427 19.6387C18.212 19.904 17.98 19.936 17.584 19.7387C17.188 19.5387 15.9107 19.1213 14.3973 17.772C13.22 16.7213 12.424 15.424 12.1933 15.0267C11.9627 14.6307 12.1693 14.416 12.3667 14.2187C12.5453 14.0413 12.764 13.756 12.9613 13.5253C13.16 13.2933 13.2253 13.128 13.3587 12.8627C13.4907 12.5987 13.4253 12.368 13.3253 12.1693C13.2253 11.9707 12.4333 10.02 12.104 9.22666C11.7813 8.45466 11.4547 8.55999 11.212 8.54666C10.9588 8.53657 10.7054 8.53213 10.452 8.53333C10.188 8.53333 9.75866 8.63199 9.39599 9.02933C9.03332 9.42533 8.00932 10.384 8.00932 12.3347C8.00932 14.284 9.42932 16.168 9.62666 16.4333C9.82532 16.6973 12.4213 20.7 16.396 22.416C17.3413 22.824 18.0787 23.068 18.6547 23.2493C19.604 23.552 20.468 23.5093 21.1493 23.4067C21.9107 23.2933 23.4933 22.448 23.824 21.5227C24.1547 20.5973 24.1547 19.804 24.0547 19.6387C23.956 19.4733 23.692 19.3747 23.2947 19.176M16.0667 29.0467H16.0613C13.701 29.0469 11.3841 28.4122 9.35332 27.2093L8.87199 26.924L3.88399 28.2333L5.21466 23.3693L4.90132 22.8707C3.58191 20.7697 2.88391 18.3382 2.88799 15.8573C2.88932 8.59066 8.80266 2.67866 16.072 2.67866C19.592 2.67866 22.9013 4.05199 25.3893 6.54266C26.6169 7.76482 27.5899 9.2183 28.252 10.819C28.9141 12.4197 29.2522 14.1358 29.2467 15.868C29.2427 23.1347 23.3307 29.0467 16.0667 29.0467M27.284 4.65066C25.8149 3.17189 24.067 1.99938 22.1414 1.20106C20.2159 0.402745 18.1511 -0.00549603 16.0667 -6.39842e-06C7.32666 -6.39842e-06 0.213322 7.11333 0.209322 15.856C0.209322 18.6507 0.938655 21.3787 2.32666 23.7827L0.0759888 32L8.48266 29.7947C10.8074 31.0612 13.4126 31.725 16.06 31.7253H16.0667C24.8053 31.7253 31.92 24.612 31.924 15.868C31.9304 13.7844 31.5237 11.7201 30.7272 9.7947C29.9308 7.86928 28.7605 6.12089 27.284 4.65066V4.65066Z"
                fill="#666666"
            />
        </svg>